<?xml version="1.0" standalone="no"?>
<!DOCTYPE svg PUBLIC "-//W3C//DTD SVG 20010904//EN"
 "http://www.w3.org/TR/2001/REC-SVG-20010904/DTD/svg10.dtd">
<svg version="1.0" xmlns="http://www.w3.org/2000/svg"
 width="751.000000pt" height="300.000000pt" viewBox="0 0 751.000000 300.000000"
 preserveAspectRatio="xMidYMid meet">

<g transform="translate(0.000000,300.000000) scale(0.100000,-0.100000)"
fill="#000000" stroke="none">
<path d="M5592 2870 c-49 -30 -64 -77 -76 -230 -2 -25 -4 -169 -5 -321 l-1
-276 -122 -6 c-140 -7 -226 -27 -281 -63 -42 -28 -92 -99 -107 -154 -24 -81
-90 -526 -90 -602 0 -20 -4 -40 -10 -43 -5 -3 -10 -2 -10 2 0 25 -71 633 -84
721 -21 139 -34 179 -69 208 -37 31 -84 31 -147 -1 -57 -29 -170 -131 -201
-182 l-22 -36 6 -469 c6 -420 5 -472 -9 -494 -44 -66 -47 -34 -45 466 1 259
-2 476 -8 505 -17 92 -110 145 -253 145 -68 0 -69 1 -61 23 4 12 8 39 7 59 -1
96 -122 143 -304 118 -165 -22 -197 -42 -301 -190 l-64 -91 -5 394 c-4 353 -7
396 -23 420 -30 46 -61 60 -121 55 -74 -6 -150 -53 -253 -154 -108 -106 -139
-170 -153 -310 -12 -129 -13 -382 0 -664 5 -124 14 -344 21 -490 6 -146 17
-353 24 -461 14 -220 24 -251 110 -368 112 -152 262 -148 294 9 14 66 41 317
41 380 0 73 11 73 60 1 154 -228 286 -405 319 -426 71 -47 191 -75 265 -61 51
10 95 50 102 95 l6 37 55 -57 c69 -73 129 -104 180 -94 49 9 110 52 172 122
l51 57 27 -27 c37 -34 122 -72 218 -97 156 -40 233 -20 258 66 l13 46 18 -28
c89 -140 255 -182 473 -119 75 22 81 20 93 -27 7 -22 24 -54 40 -70 78 -77
222 4 308 173 29 58 33 76 42 204 5 77 12 158 15 180 3 22 5 84 6 139 2 128
14 176 23 91 13 -124 25 -165 62 -216 58 -79 143 -118 289 -134 137 -14 391
-22 460 -14 133 15 228 76 255 166 30 95 21 512 -16 803 -50 392 -96 526 -200
582 -82 44 -165 61 -294 61 -128 0 -182 -14 -314 -80 -100 -50 -154 -97 -182
-157 -12 -28 -23 -49 -24 -46 0 3 -2 120 -4 260 -2 289 -9 325 -76 429 -89
138 -244 261 -329 261 -9 0 -31 -9 -49 -20z m124 -118 c75 -49 146 -129 186
-210 43 -87 49 -180 37 -612 -13 -491 -69 -1444 -88 -1493 -21 -54 -89 -143
-125 -162 -19 -10 -38 -17 -41 -14 -3 3 -10 46 -17 95 -6 49 -12 90 -13 92 -1
1 -27 -7 -56 -19 -168 -67 -324 -87 -405 -50 -57 26 -80 53 -125 146 -70 145
-93 280 -79 465 19 240 68 624 97 755 29 132 69 165 225 186 81 11 246 7 281
-6 16 -7 17 12 17 301 0 293 11 532 25 554 10 16 18 13 81 -28z m-2482 -179
c4 -76 5 -160 2 -188 -3 -27 -8 -178 -11 -335 -3 -157 -8 -322 -12 -367 -3
-52 -2 -83 4 -83 5 0 57 75 116 168 138 218 219 327 256 347 67 34 281 39 314
6 20 -20 -142 -249 -391 -550 -72 -88 -132 -163 -132 -166 0 -3 31 -59 69
-123 219 -372 461 -834 461 -880 0 -24 -2 -25 -53 -19 -99 12 -144 34 -195 96
-26 31 -138 190 -250 354 -112 163 -207 297 -211 297 -5 0 -12 -53 -15 -117
-24 -411 -53 -643 -81 -643 -24 0 -83 59 -120 121 -45 73 -50 104 -70 464 -40
728 -52 1158 -37 1356 8 114 13 132 42 188 41 77 137 168 221 210 56 28 65 30
75 16 6 -8 14 -77 18 -152z m3421 -452 c188 -27 225 -68 270 -299 51 -258 87
-753 69 -927 -13 -115 -29 -143 -100 -167 -88 -31 -491 -19 -627 19 -75 21
-132 81 -144 151 -14 85 -7 734 10 875 24 195 48 230 212 303 108 47 200 61
310 45z m-1971 -108 c10 -33 55 -368 71 -528 37 -372 68 -631 95 -795 16 -96
31 -200 32 -230 l3 -55 -32 -3 c-41 -4 -140 21 -215 54 -47 22 -61 34 -77 68
-11 22 -22 60 -26 84 -4 23 -11 42 -15 42 -5 0 -30 -27 -56 -61 -94 -123 -198
-229 -224 -229 -4 0 -28 17 -53 38 -86 70 -261 307 -273 368 -7 37 11 469 27
659 13 156 47 429 60 479 l10 38 67 -4 c96 -6 124 -22 135 -78 5 -25 6 -243 3
-484 l-5 -439 46 -114 c25 -63 50 -112 55 -111 5 2 47 48 94 103 78 92 84 103
80 135 -3 19 -9 233 -12 476 l-7 441 44 48 c45 49 134 115 156 115 6 0 14 -8
17 -17z m-808 -249 c-29 -209 -66 -692 -66 -857 0 -21 -4 -36 -9 -32 -5 3 -31
45 -57 93 -26 48 -90 161 -142 252 -52 91 -96 168 -98 171 -2 4 44 64 102 135
58 71 144 180 191 242 48 62 88 110 90 108 2 -2 -3 -53 -11 -112z"/>
<path d="M5345 1710 c-20 -32 -58 -821 -45 -906 15 -91 89 -204 135 -204 22 0
154 47 180 64 30 20 29 -5 15 536 -14 479 -11 470 -128 506 -55 16 -148 19
-157 4z m164 -115 c5 -6 11 -150 25 -648 l6 -208 -26 -9 c-67 -26 -69 -25 -94
32 -22 52 -23 58 -16 273 7 249 25 565 32 576 4 8 62 -5 73 -16z"/>
<path d="M6572 1929 c-66 -13 -114 -40 -135 -77 -26 -44 -41 -308 -33 -557 8
-222 14 -248 66 -275 65 -33 164 -19 188 27 39 71 52 838 15 874 -14 14 -57
17 -101 8z m15 -431 c-3 -183 -9 -346 -13 -361 -8 -34 -30 -45 -50 -25 -12 12
-14 67 -14 324 0 171 3 324 6 341 3 17 15 35 28 41 51 25 49 37 43 -320z"/>
<path d="M850 2804 c-240 -9 -489 -26 -524 -35 -102 -27 -121 -137 -55 -314
42 -114 105 -148 336 -181 65 -10 121 -20 125 -23 8 -8 30 -303 68 -911 59
-948 58 -938 88 -994 57 -105 195 -216 268 -216 46 0 91 33 103 77 25 87 57
703 82 1578 6 215 12 391 14 393 1 1 55 -3 120 -9 115 -11 200 -9 239 7 16 6
18 4 12 -12 -64 -156 -126 -414 -126 -524 0 -54 3 -65 28 -90 16 -16 48 -34
71 -40 l42 -11 -40 -44 c-88 -95 -116 -194 -108 -380 16 -367 80 -476 314
-536 92 -23 265 -25 363 -4 36 7 65 13 66 12 20 -37 73 -103 111 -138 81 -76
141 -99 197 -75 49 21 64 49 75 151 26 229 47 1197 29 1336 -16 124 -78 231
-174 301 -76 55 -213 126 -306 157 -176 60 -315 65 -416 15 -29 -14 -55 -24
-57 -23 -1 2 4 36 13 74 9 44 15 124 16 217 1 166 -6 185 -80 223 -37 19 -60
20 -424 21 -212 0 -423 -1 -470 -2z m866 -119 c19 -25 18 -149 -1 -270 -20
-123 -28 -143 -62 -151 -24 -7 -156 2 -344 22 l-56 6 -7 -263 c-19 -710 -46
-1382 -66 -1629 -5 -63 -10 -122 -10 -130 0 -8 -4 -21 -9 -28 -13 -21 -56 5
-117 70 -83 88 -81 79 -104 440 -61 969 -104 1588 -113 1593 -1 1 -64 9 -139
19 -136 17 -271 48 -295 67 -15 13 -51 121 -59 179 -4 33 -2 49 8 57 8 7 101
16 238 23 347 17 371 17 758 16 346 -1 365 -2 378 -21z m471 -485 c159 -45
337 -146 395 -226 55 -77 69 -130 75 -295 8 -205 -33 -1228 -50 -1245 -13 -13
-53 11 -108 68 -58 59 -79 101 -79 161 0 32 -8 33 -59 8 -108 -56 -354 -66
-474 -21 -64 24 -120 68 -142 111 -26 49 -48 209 -49 349 -1 129 0 138 28 198
37 79 108 135 194 153 65 13 220 6 347 -17 44 -7 84 -14 89 -14 8 0 3 125 -14
319 -7 74 -15 112 -30 136 -28 45 -110 96 -164 102 -38 5 -45 2 -69 -26 -37
-44 -56 -115 -70 -255 l-12 -119 -127 6 c-147 6 -168 14 -168 61 0 50 46 265
75 353 51 152 83 192 168 214 48 12 157 3 244 -21z m15 -349 c31 -28 32 -29
41 -160 6 -72 8 -134 5 -136 -6 -6 -136 10 -144 18 -9 9 12 221 26 270 13 44
29 46 72 8z"/>
<path d="M2007 1270 c-39 -31 -51 -80 -44 -184 10 -165 31 -187 182 -194 79
-3 95 -1 134 20 67 35 82 62 93 170 12 112 3 158 -34 176 -42 20 -124 32 -218
32 -72 0 -92 -3 -113 -20z m262 -99 c8 -12 5 -96 -5 -139 -6 -29 -40 -42 -108
-42 -75 0 -87 13 -94 98 -7 107 -9 106 104 100 57 -3 99 -10 103 -17z"/>
</g>
</svg>
